<svg aria-hidden="true" class="icon icon-wide" version="1.1" id="Layer_1" xmlns="http://www.w3.org/2000/svg" xmlns:xlink="http://www.w3.org/1999/xlink" x="0px" y="0px" viewBox="0 0 567.1 619.7" style="enable-background:new 0 0 567.1 619.7;" xml:space="preserve">
                                <path fill="#fff" d="M435.9,152.2L397,239.5c-34.6-15.4-72.9-24-113.2-24c-40.3,0-78.6,8.6-113.2,24l-38.9-87.3
	                                    c6.6-2.9,15.7-6.6,22.5-9l3.9,2l0,0c-4.5,7.9-5.6,18.4-2.9,29c4.6-3.4,7.8-8.5,9.3-14.5l3.9,2l0,0c1.5,5.8,3.5,11.5,6,17.1
	                                    c2.5,5.6,5.4,10.9,8.6,15.9l0.1,0.1L182,199c-3.9-2-8.3-3.1-12.9-3.1c-1.6,0-3.1,0.1-4.6,0.4c4,9.4,13.2,15.9,24,15.9
	                                    c10.1,0,18.9-5.8,23.2-14.3l0,0c-3.1-1.4-5.5-4.2-6.2-7.8c-1.1-5,2.1-7.3,1-12.2c-1.1-5-6-8.1-10.9-7c-3.8,0.8-6.6,4-7.1,7.7
	                                    c-2.7-1.6-4.7-4.3-5.4-7.5c-1.4-6.3,2.6-12.6,8.9-14c4-0.9,8,0.4,10.8,3.1c-1.6-2.5-2.9-5.3-3.5-8.4c-1.7-7.5,0.3-15.1,4.8-20.9
	                                    c6.5,3.4,11.5,9.4,13.1,17c0.7,3.1,0.7,6.1,0.3,9.1c1.4-3.6,4.4-6.4,8.5-7.3c6.3-1.4,12.6,2.6,14,8.9c0.7,3.3,0,6.5-1.7,9.1
	                                    c-2-3.1-5.8-4.8-9.7-4c-5,1.1-8.1,6-7,10.9c1.1,5,4.9,5.7,6,10.7c0.6,2.9,0.1,5.8-1.4,8.2c0,0-0.2,0.4-0.5,1
	                                    c5.1,3.9,11.5,6.3,18.5,6.3c16.8,0,30.3-13.6,30.3-30.3v-2.5c-9.6,1.5-18,6.3-24.2,13.2l-3.2-3.2v-36.3l3.3-3.3
	                                    c6.2,6.9,14.6,11.6,24.2,13.1v0c0-13.2-9-24.3-21.2-27.4l3.3-3.4c9-0.6,18.1-1,27.2-1s18.2,0.3,27.2,1l3.3,3.4
	                                    c-12.2,3.2-21.2,14.3-21.2,27.4v0c9.5-1.5,18-6.3,24.2-13.1l3.3,3.3v36.3l-3.2,3.2c-6.2-6.9-14.7-11.7-24.2-13.2v2.5
	                                    c0,16.8,13.6,30.3,30.3,30.3c7,0,13.5-2.4,18.6-6.4c-0.4-0.6-0.6-1-0.6-1c-1.4-2.4-2-5.3-1.4-8.2c1.1-5,4.9-5.7,6-10.7
	                                    c1.1-5-2-9.9-7-10.9c-3.8-0.8-7.6,0.9-9.7,4c-1.7-2.6-2.5-5.8-1.7-9.1c1.4-6.3,7.7-10.3,14-8.9c4,0.9,7.1,3.7,8.5,7.3
	                                    c-0.5-2.9-0.4-6,0.3-9.1c1.7-7.5,6.6-13.5,13.1-17c4.5,5.8,6.5,13.4,4.8,20.9c-0.7,3.1-1.9,5.9-3.5,8.4c2.7-2.7,6.7-4,10.8-3.1
	                                    c6.3,1.4,10.3,7.7,8.9,14c-0.7,3.3-2.7,5.9-5.4,7.5c-0.5-3.7-3.3-6.8-7.1-7.7c-5-1.1-9.9,2-10.9,7c-1.1,5,2.1,7.3,1,12.2
	                                    c-0.8,3.6-3.2,6.3-6.2,7.8c4.3,8.5,13.1,14.3,23.2,14.3c10.8,0,20.1-6.6,24-15.9c-1.5-0.2-3-0.4-4.6-0.4c-4.7,0-9.1,1.1-12.9,3.1
	                                    l-1.1-4.1l0.1-0.1c3.2-5,6.2-10.3,8.6-15.9c2.5-5.6,4.5-11.4,6.1-17.1l0,0l3.9-2c1.6,5.9,4.7,11.1,9.3,14.5c2.8-10.5,1.6-21-2.9-29
	                                    l0,0l3.9-2C420.1,145.5,429.3,149.2,435.9,152.2z M431.2,328.9v12.6c10.2,2.4,17,11.1,17,22c0,10.9-6.9,19.7-17,22v12.6
	                                    c10.2,2.4,17,11.1,17,22c0,10.9-6.9,19.7-17,22V455c10.2,2.4,17,11.1,17,22c0,12.8-9.5,22.7-22.7,22.7c-13.3,0-22.7-9.8-22.7-22.7
	                                    c0-10.9,6.8-19.7,17-22v-12.6c-10.2-2.4-17-11.1-17-22c0-10.9,6.8-19.7,17-22v-12.6c-10.2-2.4-17-11.1-17-22c0-10.9,6.8-19.7,17-22
	                                    V329c-10.2-2.4-17-11.1-17-22c0-10.9,6.8-19.7,17-22v-12.6c-8.4-1.9-14.4-8.2-16.4-16.4h-12v243.8h-2.6
	                                    c-5.8-17.6-14.6-33.8-25.7-48.1v-2.9h11.3v-34h-28.3v34h5.7v3.1c-7.4,14.7-12.8,30.8-15.9,47.9h-2.2c-3.1-17.1-8.5-33.3-15.9-47.9
	                                    v-3.1h5.7v-34h-28.3v34h5.7v3.1c-7.4,14.7-12.8,30.8-15.9,47.9h-2.2c-3.1-17.1-8.5-33.3-15.9-47.9v-3.1h5.7v-34h-28.3v34h5.7v3.1
	                                    c-7.4,14.7-12.8,30.8-15.9,47.9h-2.2c-3.1-17.1-8.5-33.3-15.9-47.9v-3.1h5.7v-34h-28.3v34h11.3v2.9c-11.1,14.3-19.9,30.5-25.7,48.1
	                                    h-2.6V255.9h-12c-1.9,8.2-8,14.4-16.4,16.4v12.6c10.2,2.4,17,11.1,17,22c0,10.9-6.9,19.7-17,22v12.6c10.2,2.4,17,11.1,17,22
	                                    c0,10.9-6.9,19.7-17,22v12.6c10.2,2.4,17,11.1,17,22c0,10.9-6.9,19.7-17,22V455c10.2,2.4,17,11.1,17,22c0,12.8-9.5,22.7-22.7,22.7
	                                    c-13.3,0-22.7-9.8-22.7-22.7c0-10.9,6.8-19.7,17-22v-12.6c-10.2-2.4-17-11.1-17-22c0-10.9,6.8-19.7,17-22v-12.6
	                                    c-10.2-2.4-17-11.1-17-22c0-10.9,6.8-19.7,17-22V329c-10.2-2.4-17-11.1-17-22c0-10.9,6.8-19.7,17-22v-12.6c-10.2-2.4-17-11.1-17-22
	                                    c0-12.8,9.4-22.7,22.7-22.7c11.2,0,19.7,7,22,17h239.4c2.3-10,10.8-17,22-17c13.2,0,22.7,9.8,22.7,22.7c0,10.9-6.9,19.7-17,22v12.6
	                                    c10.2,2.4,17,11.1,17,22C448.2,317.8,441.3,326.6,431.2,328.9z M147.6,466.9c-0.5,2.6-2.7,4.4-5.5,4.4c-2.9,0-5-1.9-5.5-4.4
	                                    c-3.6,1.8-5.8,5.4-5.8,10.1c0,6.8,4.6,11.3,11.3,11.3c6.8,0,11.3-4.6,11.3-11.3C153.4,472.3,151.2,468.7,147.6,466.9z M147.6,410.2
	                                    c-0.5,2.6-2.7,4.4-5.5,4.4c-2.9,0-5-1.9-5.5-4.4c-3.6,1.8-5.8,5.4-5.8,10.1c0,4.7,2.2,8.3,5.8,10.1c0.5-2.6,2.7-4.4,5.5-4.4
	                                    c2.9,0,5,1.9,5.5,4.4c3.6-1.8,5.8-5.4,5.8-10.1C153.4,415.6,151.2,412,147.6,410.2z M147.6,353.5c-0.5,2.6-2.7,4.4-5.5,4.4
	                                    c-2.9,0-5-1.9-5.5-4.4c-3.6,1.8-5.8,5.4-5.8,10.1c0,4.7,2.2,8.3,5.8,10.1c0.5-2.6,2.7-4.4,5.5-4.4c2.9,0,5,1.9,5.5,4.4
	                                    c3.6-1.8,5.8-5.4,5.8-10.1C153.4,358.9,151.2,355.3,147.6,353.5z M153.4,250.2c0-6.8-4.6-11.3-11.3-11.3c-6.8,0-11.3,4.6-11.3,11.3
	                                    c0,4.7,2.2,8.3,5.8,10.1c0.5-2.6,2.7-4.4,5.5-4.4c2.9,0,5,1.9,5.5,4.4C151.2,258.6,153.4,254.9,153.4,250.2z M221.4,363.6h-28.3v34
	                                    h28.3V363.6z M221.4,312.6h-28.3v34h28.3V312.6z M221.4,261.6h-28.3v34h28.3V261.6z M272.4,363.6h-28.3v34h28.3V363.6z M272.4,312.6
	                                    h-28.3v34h28.3V312.6z M272.4,261.6h-28.3v34h28.3V261.6z M323.5,363.6h-28.3v34h28.3V363.6z M323.5,312.6h-28.3v34h28.3V312.6z
	                                     M323.5,261.6h-28.3v34h28.3V261.6z M374.5,363.6h-28.3v34h28.3V363.6z M374.5,312.6h-28.3v34h28.3V312.6z M374.5,261.6h-28.3v34
	                                    h28.3V261.6z M420,260.3c0.5-2.6,2.7-4.4,5.5-4.4c2.9,0,5,1.9,5.5,4.4c3.6-1.8,5.8-5.4,5.8-10.1c0-6.8-4.6-11.3-11.3-11.3
	                                    c-6.8,0-11.3,4.6-11.3,11.3C414.2,254.9,416.4,258.5,420,260.3z M431,466.9c-0.5,2.6-2.7,4.4-5.5,4.4c-2.9,0-5-1.9-5.5-4.4
	                                    c-3.6,1.8-5.8,5.4-5.8,10.1c0,6.8,4.6,11.3,11.3,11.3c6.8,0,11.3-4.6,11.3-11.3C436.8,472.3,434.6,468.7,431,466.9z M431,410.2
	                                    c-0.5,2.6-2.7,4.4-5.5,4.4c-2.9,0-5-1.9-5.5-4.4c-3.6,1.8-5.8,5.4-5.8,10.1c0,4.7,2.2,8.3,5.8,10.1c0.5-2.6,2.7-4.4,5.5-4.4
	                                    c2.9,0,5,1.9,5.5,4.4c3.6-1.8,5.8-5.4,5.8-10.1C436.8,415.6,434.6,412,431,410.2z M431,353.5c-0.5,2.6-2.7,4.4-5.5,4.4
	                                    c-2.9,0-5-1.9-5.5-4.4c-3.6,1.8-5.8,5.4-5.8,10.1c0,4.7,2.2,8.3,5.8,10.1c0.5-2.6,2.7-4.4,5.5-4.4c2.9,0,5,1.9,5.5,4.4
	                                    c3.6-1.8,5.8-5.4,5.8-10.1C436.8,358.9,434.6,355.3,431,353.5z M147.6,296.8c-0.5,2.6-2.7,4.4-5.5,4.4c-2.9,0-5-1.9-5.5-4.4
	                                    c-3.6,1.8-5.8,5.4-5.8,10.1c0,4.7,2.2,8.3,5.8,10.1c0.5-2.6,2.7-4.4,5.5-4.4c2.9,0,5,1.9,5.5,4.4c3.6-1.8,5.8-5.4,5.8-10.1
	                                    C153.4,302.2,151.2,298.6,147.6,296.8z M431,296.8c-0.5,2.6-2.7,4.4-5.5,4.4c-2.9,0-5-1.9-5.5-4.4c-3.6,1.8-5.8,5.4-5.8,10.1
	                                    c0,4.7,2.2,8.3,5.8,10.1c0.5-2.6,2.7-4.4,5.5-4.4c2.9,0,5,1.9,5.5,4.4c3.6-1.8,5.8-5.4,5.8-10.1C436.8,302.2,434.6,298.6,431,296.8z
	                                    "></path>
                                </svg>