<svg viewBox="0 0 425 425" xmlns="http://www.w3.org/2000/svg">
  <metadata id="metadata8">image/svg+xml</metadata>
  <defs>
    <clipPath clipPathUnits="userSpaceOnUse" id="clipPath18">
      <path d="m-81.75,574.075l449.585,0l0,-488.575l-449.585,0l0,488.575z" id="path16"/>
    </clipPath>
  </defs>
  <g>
    <title>background</title>
    <rect fill="none" id="canvas_background" height="427" width="427" y="-1" x="-1"/>
  </g>
  <g>
    <title>Layer 1</title>
    <g id="g10" transform="matrix(1.3333333,0,0,-1.3333333,0,651.43333) ">
      <g id="g12">
        <g id="g14" clip-path="url(#clipPath18)">
          <g id="g20">
            <path fill="#006e46" fill-rule="nonzero" d="m270.167908,456.778595l-29.308,-78.152c-31.109,8.591 -63.839,13.421 -97.681,13.421c-33.843,0 -66.572,-4.83 -97.682,-13.421l-29.308,78.152l23.009,0c-2.15,-5.767 -3.472,-12.383 -3.472,-19.537l19.537,9.769l0,-19.537l-18.748,0c2.779,-16.853 12.579,-29.305 24.242,-29.305c8.734,0 16.354,7.03 20.803,17.634c-1.946,1.426 -3.376,3.563 -3.842,6.123c-0.585,3.22 0.487,6.352 2.6,8.538c-2.842,3.837 -4.787,8.409 -5.439,13.491c-1.1,8.575 1.705,16.688 6.928,22.767c6.589,-4.563 11.35,-11.706 12.45,-20.281c0.652,-5.082 -0.076,-9.998 -1.859,-14.429c2.301,-1.4 4.022,-3.731 4.542,-6.589c0.603,-3.314 -0.543,-6.542 -2.782,-8.734c2.693,-3.238 6.013,-5.724 9.74,-7.183c0.479,-0.219 0.974,-0.373 1.465,-0.547c0.489,-0.15 0.956,-0.349 1.456,-0.464c1.306,-0.333 2.634,-0.558 4.002,-0.558c0.091,0 0.175,0.04 0.265,0.042c0.118,-0.002 0.227,-0.042 0.345,-0.042c13.488,0 24.421,13.12 24.421,29.305c0,0.037 -0.003,0.073 -0.003,0.11c-8.802,-0.001 -16.604,-3.873 -21.975,-9.878l0,29.305c5.371,-6.005 13.174,-9.878 21.976,-9.878c0,0.037 0.002,0.073 0.002,0.11l0.075,0c0,12.537 -4.966,23.376 -12.285,29.305l39.073,0c-7.319,-5.929 -12.285,-16.768 -12.285,-29.305l0.075,0c0,-0.037 0.002,-0.073 0.002,-0.11c8.803,0 16.605,3.873 21.977,9.878l0,-29.305c-5.371,6.005 -13.174,9.877 -21.976,9.878c0,-0.037 -0.003,-0.073 -0.003,-0.11c0,-16.185 10.934,-29.305 24.421,-29.305c0.118,0 0.227,0.04 0.345,0.042c0.091,-0.002 0.174,-0.042 0.266,-0.042c1.367,0 2.695,0.226 4,0.558c0.504,0.115 0.974,0.315 1.465,0.467c0.489,0.173 0.981,0.327 1.458,0.544c3.727,1.459 7.046,3.946 9.738,7.184c-2.238,2.192 -3.384,5.419 -2.78,8.733c0.52,2.858 2.24,5.189 4.541,6.589c-1.782,4.431 -2.511,9.347 -1.859,14.429c1.1,8.575 5.861,15.718 12.45,20.281c5.224,-6.079 8.028,-14.192 6.928,-22.767c-0.652,-5.082 -2.597,-9.654 -5.439,-13.491c2.114,-2.186 3.186,-5.318 2.6,-8.538c-0.466,-2.56 -1.896,-4.698 -3.842,-6.123c4.449,-10.604 12.069,-17.634 20.803,-17.634c11.663,0 21.464,12.452 24.243,29.305l-18.749,0l0,19.537l19.537,-9.769c0,7.154 -1.321,13.77 -3.471,19.537l23.008,0zm-234.443,-87.885l0,-185.601c-11.371,0 -19.536,8.472 -19.536,19.537c0,7.501 3.806,13.735 9.768,17.021l0,14.8c-5.962,3.286 -9.768,9.521 -9.768,17.021c0,7.5 3.806,13.734 9.768,17.021l0,14.8c-5.962,3.286 -9.768,9.521 -9.768,17.021c0,7.501 3.806,13.734 9.768,17.021l0,14.8c-5.962,3.287 -9.768,9.521 -9.768,17.021c0,11.066 8.165,19.538 19.536,19.538m224.674,-36.557l0,-14.801c5.962,-3.286 9.769,-9.52 9.769,-17.021c0,-7.5 -3.807,-13.734 -9.769,-17.021l0,-14.8c5.962,-3.286 9.769,-9.52 9.769,-17.021c0,-7.5 -3.807,-13.734 -9.769,-17.021l0,-14.8c5.962,-3.286 9.769,-9.52 9.769,-17.021c0,-11.065 -8.166,-19.538 -19.537,-19.538l0,185.601c11.371,0 19.537,-8.471 19.537,-19.537c0,-7.5 -3.807,-13.734 -9.769,-17.02m-48.841,-2.548l-19.537,0l0,19.537l19.537,0l0,-19.537zm0,-39.073l-19.537,0l0,19.537l19.537,0l0,-19.537zm0,-39.074l-19.537,0l0,19.537l19.537,0l0,-19.537zm-39.074,78.147l-19.537,0l0,19.537l19.537,0l0,-19.537zm0,-39.073l-19.537,0l0,19.537l19.537,0l0,-19.537zm0,-39.074l-19.537,0l0,19.537l19.537,0l0,-19.537zm-39.074,78.147l-19.537,0l0,19.537l19.537,0l0,-19.537zm0,-39.073l-19.537,0l0,19.537l19.537,0l0,-19.537zm0,-39.074l-19.537,0l0,19.537l19.537,0l0,-19.537zm-39.074,78.147l-19.537,0l0,19.537l19.537,0l0,-19.537zm0,-39.073l-19.537,0l0,19.537l19.537,0l0,-19.537zm0,-39.074l-19.537,0l0,19.537l19.537,0l0,-19.537zm-39.073,117.221l0,-185.6l19.536,29.305l0,19.537l19.537,0l0,-19.537l-4.884,0l0,-4.884l14.653,-24.421l14.652,24.421l0,4.884l-4.884,0l0,19.537l19.537,0l0,-19.537l-4.884,0l0,-4.884l14.653,-24.421l14.652,24.421l0,4.884l-4.884,0l0,19.537l19.537,0l0,-19.537l-4.884,0l0,-4.884l14.652,-24.421l14.653,24.421l0,4.884l-4.884,0l0,19.537l19.537,0l0,-19.537l19.536,-29.305l0,185.6l-175.831,0z" id="path22"/>
          </g>
        </g>
      </g>
    </g>
  </g>
</svg>